<svg xmlns="http://www.w3.org/2000/svg" viewBox="0 0 600 400" role="img" aria-label="A busy French outdoor market in a sunny town square">
  <defs>
    <linearGradient id="sky" x1="0" y1="0" x2="0" y2="1">
      <stop offset="0%" stop-color="#3A8FD0"/>
      <stop offset="60%" stop-color="#7DC0E8"/>
      <stop offset="100%" stop-color="#C5E8F7"/>
    </linearGradient>
    <linearGradient id="ground" x1="0" y1="0" x2="0" y2="1">
      <stop offset="0%" stop-color="#C8B590"/>
      <stop offset="100%" stop-color="#B09870"/>
    </linearGradient>
    <linearGradient id="stoneFount" x1="0" y1="0" x2="0" y2="1">
      <stop offset="0%" stop-color="#B0B8C0"/>
      <stop offset="100%" stop-color="#808890"/>
    </linearGradient>
    <radialGradient id="sunGlow" cx="50%" cy="50%" r="50%">
      <stop offset="0%" stop-color="#FFE566" stop-opacity="1"/>
      <stop offset="60%" stop-color="#FFD033" stop-opacity="0.6"/>
      <stop offset="100%" stop-color="#FFB800" stop-opacity="0"/>
    </radialGradient>
    <filter id="shadow" x="-10%" y="-10%" width="120%" height="130%">
      <feDropShadow dx="1" dy="2" stdDeviation="2" flood-color="#00000030"/>
    </filter>
  </defs>

  <!-- ══════════ SKY ══════════ -->
  <rect width="600" height="400" fill="url(#sky)"/>

  <!-- Sun glow halo -->
  <circle cx="520" cy="52" r="60" fill="url(#sunGlow)"/>
  <!-- Sun disc -->
  <circle cx="520" cy="52" r="28" fill="#FFE566"/>
  <!-- Sun rays -->
  <g stroke="#FFE566" stroke-width="2" opacity="0.6">
    <line x1="520" y1="16" x2="520" y2="6"/>
    <line x1="548" y1="24" x2="555" y2="17"/>
    <line x1="556" y1="52" x2="566" y2="52"/>
    <line x1="548" y1="80" x2="555" y2="87"/>
    <line x1="520" y1="88" x2="520" y2="98"/>
    <line x1="492" y1="80" x2="485" y2="87"/>
    <line x1="484" y1="52" x2="474" y2="52"/>
    <line x1="492" y1="24" x2="485" y2="17"/>
  </g>

  <!-- Clouds -->
  <g opacity="0.92">
    <ellipse cx="70" cy="42" rx="32" ry="16" fill="white"/>
    <ellipse cx="92" cy="34" rx="26" ry="15" fill="white"/>
    <ellipse cx="114" cy="42" rx="24" ry="14" fill="white"/>
    <ellipse cx="52" cy="48" rx="18" ry="11" fill="#F0F8FF"/>
    <ellipse cx="130" cy="48" rx="16" ry="10" fill="#F0F8FF"/>
  </g>
  <g opacity="0.80">
    <ellipse cx="330" cy="28" rx="26" ry="13" fill="white"/>
    <ellipse cx="350" cy="22" rx="20" ry="12" fill="white"/>
    <ellipse cx="368" cy="28" rx="18" ry="11" fill="white"/>
  </g>
  <g opacity="0.70">
    <ellipse cx="430" cy="18" rx="20" ry="10" fill="white"/>
    <ellipse cx="447" cy="13" rx="15" ry="9" fill="white"/>
    <ellipse cx="462" cy="18" rx="14" ry="9" fill="white"/>
  </g>

  <!-- ══════════ BACKGROUND BUILDINGS ══════════ -->

  <!-- Far-left building (4 storeys) -->
  <rect x="0" y="58" width="108" height="210" fill="#C8A878"/>
  <!-- Cornice -->
  <rect x="0" y="50" width="110" height="14" fill="#A07840"/>
  <!-- Quoin stones (corner detail) -->
  <rect x="0" y="58" width="8" height="210" fill="#B89058" opacity="0.6"/>
  <!-- Shutters + windows — row 1 -->
  <rect x="12" y="76" width="24" height="30" fill="#7AAEC8" rx="2"/>
  <rect x="10" y="74" width="6" height="32" fill="#5A7A40" rx="1"/>
  <rect x="36" y="74" width="6" height="32" fill="#5A7A40" rx="1"/>
  <rect x="46" y="76" width="24" height="30" fill="#7AAEC8" rx="2"/>
  <rect x="44" y="74" width="6" height="32" fill="#5A7A40" rx="1"/>
  <rect x="70" y="74" width="6" height="32" fill="#5A7A40" rx="1"/>
  <rect x="78" y="76" width="24" height="30" fill="#7AAEC8" rx="2"/>
  <rect x="76" y="74" width="6" height="32" fill="#5A7A40" rx="1"/>
  <rect x="100" y="74" width="6" height="32" fill="#5A7A40" rx="1"/>
  <!-- Window mullion cross -->
  <line x1="24" y1="76" x2="24" y2="106" stroke="#5A7A90" stroke-width="1"/>
  <line x1="12" y1="91" x2="36" y2="91" stroke="#5A7A90" stroke-width="1"/>
  <!-- row 2 -->
  <rect x="12" y="120" width="24" height="30" fill="#7AAEC8" rx="2"/>
  <rect x="10" y="118" width="6" height="32" fill="#5A7A40" rx="1"/>
  <rect x="36" y="118" width="6" height="32" fill="#5A7A40" rx="1"/>
  <rect x="46" y="120" width="24" height="30" fill="#7AAEC8" rx="2"/>
  <rect x="44" y="118" width="6" height="32" fill="#5A7A40" rx="1"/>
  <rect x="70" y="118" width="6" height="32" fill="#5A7A40" rx="1"/>
  <rect x="78" y="120" width="24" height="30" fill="#7AAEC8" rx="2"/>
  <rect x="76" y="118" width="6" height="32" fill="#5A7A40" rx="1"/>
  <rect x="100" y="118" width="6" height="32" fill="#5A7A40" rx="1"/>
  <!-- row 3 -->
  <rect x="12" y="164" width="24" height="28" fill="#7AAEC8" rx="2"/>
  <rect x="46" y="164" width="24" height="28" fill="#7AAEC8" rx="2"/>
  <rect x="78" y="164" width="24" height="28" fill="#7AAEC8" rx="2"/>
  <!-- Ground floor: arched doorway + window -->
  <rect x="16" y="210" width="30" height="58" fill="#7A5830" rx="2"/>
  <ellipse cx="31" cy="210" rx="15" ry="7" fill="#7A5830"/>
  <rect x="54" y="215" width="24" height="35" fill="#8AAEC8" rx="2"/>
  <!-- Flower boxes on windows -->
  <rect x="10" y="106" width="28" height="5" fill="#A07840" rx="1"/>
  <circle cx="16" cy="105" r="3" fill="#EF4444"/>
  <circle cx="22" cy="104" r="3" fill="#F97316"/>
  <circle cx="28" cy="105" r="3" fill="#EF4444"/>
  <circle cx="34" cy="104" r="3" fill="#FCD34D"/>
  <!-- Café sign on ground floor -->
  <rect x="56" y="200" width="40" height="10" fill="#C00" rx="2"/>
  <text x="76" y="208" font-size="5" fill="white" text-anchor="middle" font-family="serif">CAFÉ</text>
  <!-- Umbrella tables hint outside café -->
  <ellipse cx="18" cy="265" rx="18" ry="6" fill="#DC2626" opacity="0.8"/>
  <rect x="17" y="265" width="2" height="18" fill="#888"/>

  <!-- Centre civic/mairie building (grand) -->
  <rect x="170" y="38" width="220" height="222" fill="#DDD0B0"/>
  <!-- Rusticated base -->
  <rect x="168" y="190" width="224" height="70" fill="#C8B898"/>
  <!-- Pediment -->
  <polygon points="162,40 280,5 398,40" fill="#B8A070"/>
  <line x1="162" y1="40" x2="398" y2="40" stroke="#A09060" stroke-width="2"/>
  <!-- Clock in pediment -->
  <circle cx="280" cy="25" r="10" fill="#EEE" stroke="#A09060" stroke-width="1.5"/>
  <line x1="280" y1="25" x2="280" y2="17" stroke="#333" stroke-width="1.5"/>
  <line x1="280" y1="25" x2="286" y2="25" stroke="#333" stroke-width="1.5"/>
  <!-- Columns -->
  <rect x="185" y="80" width="12" height="150" fill="#C8B898" rx="3"/>
  <ellipse cx="191" cy="80" rx="8" ry="4" fill="#D8C8A8"/>
  <ellipse cx="191" cy="230" rx="8" ry="4" fill="#D8C8A8"/>
  <rect x="220" y="80" width="12" height="150" fill="#C8B898" rx="3"/>
  <ellipse cx="226" cy="80" rx="8" ry="4" fill="#D8C8A8"/>
  <ellipse cx="226" cy="230" rx="8" ry="4" fill="#D8C8A8"/>
  <rect x="330" y="80" width="12" height="150" fill="#C8B898" rx="3"/>
  <ellipse cx="336" cy="80" rx="8" ry="4" fill="#D8C8A8"/>
  <ellipse cx="336" cy="230" rx="8" ry="4" fill="#D8C8A8"/>
  <rect x="365" y="80" width="12" height="150" fill="#C8B898" rx="3"/>
  <ellipse cx="371" cy="80" rx="8" ry="4" fill="#D8C8A8"/>
  <ellipse cx="371" cy="230" rx="8" ry="4" fill="#D8C8A8"/>
  <!-- Windows row 1 -->
  <rect x="200" y="95" width="20" height="28" fill="#7AAEC8" rx="2"/>
  <ellipse cx="210" cy="95" rx="10" ry="5" fill="#7AAEC8"/>
  <rect x="242" y="95" width="20" height="28" fill="#7AAEC8" rx="2"/>
  <ellipse cx="252" cy="95" rx="10" ry="5" fill="#7AAEC8"/>
  <rect x="302" y="95" width="20" height="28" fill="#7AAEC8" rx="2"/>
  <ellipse cx="312" cy="95" rx="10" ry="5" fill="#7AAEC8"/>
  <rect x="343" y="95" width="20" height="28" fill="#7AAEC8" rx="2"/>
  <ellipse cx="353" cy="95" rx="10" ry="5" fill="#7AAEC8"/>
  <!-- Windows row 2 -->
  <rect x="200" y="143" width="20" height="26" fill="#7AAEC8" rx="2"/>
  <rect x="242" y="143" width="20" height="26" fill="#7AAEC8" rx="2"/>
  <rect x="302" y="143" width="20" height="26" fill="#7AAEC8" rx="2"/>
  <rect x="343" y="143" width="20" height="26" fill="#7AAEC8" rx="2"/>
  <!-- Grand arched entrance -->
  <rect x="255" y="175" width="50" height="85" fill="#5A3010" rx="3"/>
  <ellipse cx="280" cy="175" rx="25" ry="12" fill="#5A3010"/>
  <rect x="260" y="178" width="18" height="80" fill="#8AAED0" rx="2" opacity="0.6"/>
  <rect x="282" y="178" width="18" height="80" fill="#8AAED0" rx="2" opacity="0.6"/>
  <!-- Steps -->
  <rect x="240" y="255" width="80" height="5" fill="#B0A888"/>
  <rect x="245" y="250" width="70" height="6" fill="#C0B898"/>
  <!-- Mairie sign -->
  <rect x="220" y="58" width="120" height="14" fill="#002395" rx="2"/>
  <text x="280" y="68" font-size="6.5" fill="white" text-anchor="middle" font-family="serif" font-weight="bold">MAIRIE</text>
  <!-- French tricolour flag -->
  <rect x="275" y="6" width="10" height="26" fill="#002395"/>
  <rect x="285" y="6" width="10" height="26" fill="white"/>
  <rect x="295" y="6" width="10" height="26" fill="#ED2939"/>
  <line x1="280" y1="5" x2="280" y2="-2" stroke="#888" stroke-width="1.5"/>

  <!-- Right building -->
  <rect x="492" y="64" width="108" height="196" fill="#C8A878"/>
  <rect x="490" y="56" width="110" height="14" fill="#A07840"/>
  <rect x="600" y="64" width="0" height="196" fill="#B89058"/>
  <rect x="592" y="64" width="8" height="196" fill="#B89058" opacity="0.5"/>
  <!-- Windows -->
  <rect x="498" y="80" width="22" height="28" fill="#7AAEC8" rx="2"/>
  <rect x="496" y="78" width="6" height="32" fill="#5A7A40" rx="1"/>
  <rect x="520" y="78" width="6" height="32" fill="#5A7A40" rx="1"/>
  <rect x="532" y="80" width="22" height="28" fill="#7AAEC8" rx="2"/>
  <rect x="530" y="78" width="6" height="32" fill="#5A7A40" rx="1"/>
  <rect x="554" y="78" width="6" height="32" fill="#5A7A40" rx="1"/>
  <rect x="566" y="80" width="26" height="28" fill="#7AAEC8" rx="2"/>
  <rect x="498" y="122" width="22" height="28" fill="#7AAEC8" rx="2"/>
  <rect x="496" y="120" width="6" height="32" fill="#5A7A40" rx="1"/>
  <rect x="520" y="120" width="6" height="32" fill="#5A7A40" rx="1"/>
  <rect x="532" y="122" width="22" height="28" fill="#7AAEC8" rx="2"/>
  <rect x="530" y="120" width="6" height="32" fill="#5A7A40" rx="1"/>
  <rect x="554" y="120" width="6" height="32" fill="#5A7A40" rx="1"/>
  <rect x="566" y="122" width="26" height="28" fill="#7AAEC8" rx="2"/>
  <rect x="498" y="163" width="22" height="26" fill="#7AAEC8" rx="2"/>
  <rect x="532" y="163" width="22" height="26" fill="#7AAEC8" rx="2"/>
  <rect x="566" y="163" width="26" height="26" fill="#7AAEC8" rx="2"/>
  <!-- Flower boxes -->
  <rect x="496" y="150" width="28" height="5" fill="#A07840" rx="1"/>
  <circle cx="502" cy="149" r="3" fill="#F9A8D4"/>
  <circle cx="508" cy="148" r="3" fill="#EC4899"/>
  <circle cx="514" cy="149" r="3" fill="#F9A8D4"/>
  <circle cx="520" cy="148" r="3" fill="#FDE68A"/>
  <rect x="530" y="150" width="28" height="5" fill="#A07840" rx="1"/>
  <circle cx="536" cy="149" r="3" fill="#EF4444"/>
  <circle cx="542" cy="148" r="3" fill="#F97316"/>
  <circle cx="548" cy="149" r="3" fill="#EF4444"/>
  <circle cx="554" cy="148" r="3" fill="#FCD34D"/>
  <!-- Ground floor boulangerie -->
  <rect x="496" y="205" width="96" height="55" fill="#E8D8B0"/>
  <rect x="506" y="195" width="76" height="14" fill="#A07840" rx="2"/>
  <text x="544" y="205" font-size="6" fill="white" text-anchor="middle" font-family="serif">BOULANGERIE</text>
  <rect x="510" y="210" width="35" height="45" fill="#8AAED0" rx="2"/>
  <rect x="552" y="210" width="30" height="45" fill="#8AAED0" rx="2"/>

  <!-- ══════════ TREES ══════════ -->
  <!-- Left tree -->
  <rect x="128" y="200" width="8" height="60" fill="#5A3A1A"/>
  <ellipse cx="132" cy="195" rx="26" ry="32" fill="#2D7A2D"/>
  <ellipse cx="120" cy="205" rx="18" ry="24" fill="#3A9A3A" opacity="0.8"/>
  <ellipse cx="144" cy="202" rx="18" ry="26" fill="#2D7A2D" opacity="0.9"/>
  <ellipse cx="132" cy="178" rx="16" ry="18" fill="#3A9A3A"/>

  <!-- Right tree -->
  <rect x="464" y="200" width="8" height="60" fill="#5A3A1A"/>
  <ellipse cx="468" cy="195" rx="26" ry="32" fill="#2D7A2D"/>
  <ellipse cx="456" cy="202" rx="18" ry="26" fill="#2D7A2D" opacity="0.9"/>
  <ellipse cx="480" cy="205" rx="18" ry="24" fill="#3A9A3A" opacity="0.8"/>
  <ellipse cx="468" cy="178" rx="16" ry="18" fill="#3A9A3A"/>

  <!-- ══════════ GROUND / COBBLES ══════════ -->
  <rect x="0" y="270" width="600" height="130" fill="url(#ground)"/>
  <!-- Cobble grid -->
  <g stroke="#9A8060" stroke-width="0.8" opacity="0.55">
    <line x1="0" y1="284" x2="600" y2="284"/>
    <line x1="0" y1="298" x2="600" y2="298"/>
    <line x1="0" y1="312" x2="600" y2="312"/>
    <line x1="0" y1="326" x2="600" y2="326"/>
    <line x1="0" y1="340" x2="600" y2="340"/>
    <line x1="0" y1="354" x2="600" y2="354"/>
    <line x1="0" y1="368" x2="600" y2="368"/>
    <line x1="60" y1="270" x2="60" y2="400"/>
    <line x1="120" y1="270" x2="120" y2="400"/>
    <line x1="180" y1="270" x2="180" y2="400"/>
    <line x1="240" y1="270" x2="240" y2="400"/>
    <line x1="300" y1="270" x2="300" y2="400"/>
    <line x1="360" y1="270" x2="360" y2="400"/>
    <line x1="420" y1="270" x2="420" y2="400"/>
    <line x1="480" y1="270" x2="480" y2="400"/>
    <line x1="540" y1="270" x2="540" y2="400"/>
  </g>

  <!-- ══════════ STONE FOUNTAIN (centre) ══════════ -->
  <!-- Outer basin rim -->
  <ellipse cx="300" cy="263" rx="54" ry="20" fill="#909898"/>
  <ellipse cx="300" cy="261" rx="50" ry="17" fill="#788088"/>
  <!-- Water surface -->
  <ellipse cx="300" cy="260" rx="46" ry="14" fill="#5AAAD0" opacity="0.75"/>
  <!-- Water ripples -->
  <ellipse cx="295" cy="260" rx="20" ry="6" fill="none" stroke="#7BBFE8" stroke-width="1" opacity="0.6"/>
  <ellipse cx="308" cy="262" rx="12" ry="4" fill="none" stroke="#7BBFE8" stroke-width="0.8" opacity="0.5"/>
  <!-- Pedestal -->
  <rect x="290" y="200" width="20" height="62" fill="url(#stoneFount)" rx="3"/>
  <!-- Fluting on pedestal -->
  <line x1="295" y1="202" x2="295" y2="260" stroke="#A0A8B0" stroke-width="1" opacity="0.5"/>
  <line x1="300" y1="202" x2="300" y2="260" stroke="#A0A8B0" stroke-width="1" opacity="0.5"/>
  <line x1="305" y1="202" x2="305" y2="260" stroke="#A0A8B0" stroke-width="1" opacity="0.5"/>
  <!-- Upper bowl -->
  <ellipse cx="300" cy="200" rx="30" ry="10" fill="#909898"/>
  <ellipse cx="300" cy="197" rx="26" ry="8" fill="#788088"/>
  <ellipse cx="300" cy="195" rx="22" ry="6" fill="#5AAAD0" opacity="0.7"/>
  <!-- Central spout knob -->
  <circle cx="300" cy="192" r="5" fill="#808888"/>
  <circle cx="300" cy="190" r="3" fill="#A0A8B0"/>
  <!-- Water jets — main upward -->
  <path d="M300,190 Q298,170 293,155" fill="none" stroke="#90D0F0" stroke-width="2.5" opacity="0.85"/>
  <path d="M300,190 Q300,168 300,150" fill="none" stroke="#90D0F0" stroke-width="3" opacity="0.9"/>
  <path d="M300,190 Q302,170 307,155" fill="none" stroke="#90D0F0" stroke-width="2.5" opacity="0.85"/>
  <!-- Arching side jets -->
  <path d="M300,190 Q282,175 270,190" fill="none" stroke="#90D0F0" stroke-width="1.8" opacity="0.7"/>
  <path d="M300,190 Q318,175 330,190" fill="none" stroke="#90D0F0" stroke-width="1.8" opacity="0.7"/>
  <path d="M300,190 Q280,178 265,200" fill="none" stroke="#90D0F0" stroke-width="1.5" opacity="0.6"/>
  <path d="M300,190 Q320,178 335,200" fill="none" stroke="#90D0F0" stroke-width="1.5" opacity="0.6"/>
  <!-- Droplets -->
  <circle cx="293" cy="155" r="3" fill="#90D0F0" opacity="0.8"/>
  <circle cx="300" cy="149" r="4" fill="#90D0F0" opacity="0.9"/>
  <circle cx="307" cy="155" r="3" fill="#90D0F0" opacity="0.8"/>
  <circle cx="270" cy="192" r="3" fill="#90D0F0" opacity="0.6"/>
  <circle cx="330" cy="192" r="3" fill="#90D0F0" opacity="0.6"/>
  <!-- Pigeon on fountain rim -->
  <ellipse cx="340" cy="256" rx="9" ry="5" fill="#888"/>
  <ellipse cx="347" cy="254" rx="5" ry="4" fill="#999"/>
  <circle cx="350" cy="252" r="3" fill="#777"/>
  <line x1="350" y1="254" x2="353" y2="256" stroke="#888" stroke-width="1"/>

  <!-- ══════════ MARKET STALLS ══════════ -->

  <!-- STALL 1 — Red awning · FRUITS -->
  <!-- Trestle legs -->
  <line x1="18" y1="230" x2="12" y2="270" stroke="#6B4226" stroke-width="3"/>
  <line x1="18" y1="230" x2="24" y2="270" stroke="#6B4226" stroke-width="3"/>
  <line x1="102" y1="230" x2="96" y2="270" stroke="#6B4226" stroke-width="3"/>
  <line x1="102" y1="230" x2="108" y2="270" stroke="#6B4226" stroke-width="3"/>
  <!-- Table top -->
  <rect x="8" y="225" width="104" height="8" fill="#D4B880" rx="2"/>
  <!-- Awning poles -->
  <rect x="10" y="185" width="4" height="48" fill="#7A5A30"/>
  <rect x="106" y="185" width="4" height="48" fill="#7A5A30"/>
  <!-- Awning -->
  <polygon points="5,187 115,187 110,170 10,170" fill="#DC2626"/>
  <!-- Awning stripes -->
  <polygon points="25,170 30,170 35,187 30,187" fill="#B91C1C" opacity="0.5"/>
  <polygon points="50,170 55,170 60,187 55,187" fill="#B91C1C" opacity="0.5"/>
  <polygon points="75,170 80,170 85,187 80,187" fill="#B91C1C" opacity="0.5"/>
  <polygon points="100,170 105,170 110,187 105,187" fill="#B91C1C" opacity="0.5"/>
  <!-- Scalloped fringe -->
  <path d="M5,187 Q11,196 17,187 Q23,196 29,187 Q35,196 41,187 Q47,196 53,187 Q59,196 65,187 Q71,196 77,187 Q83,196 89,187 Q95,196 101,187 Q107,196 113,187" fill="none" stroke="#EF4444" stroke-width="5"/>
  <!-- Price sign -->
  <rect x="30" y="172" width="40" height="12" fill="#FFF9" rx="2"/>
  <text x="50" y="181" font-size="6.5" fill="#B91C1C" text-anchor="middle" font-family="sans-serif" font-weight="bold">FRUITS</text>
  <!-- Produce: layered fruit display -->
  <rect x="10" y="210" width="100" height="15" fill="#F0E0B0" rx="2"/><!-- tablecloth edge -->
  <!-- Back row -->
  <circle cx="20" cy="216" r="7" fill="#FF6B00"/>
  <circle cx="33" cy="215" r="7" fill="#FF4500"/>
  <circle cx="46" cy="216" r="7" fill="#FFD700"/>
  <circle cx="59" cy="215" r="6" fill="#FF8C00"/>
  <circle cx="71" cy="216" r="7" fill="#DC143C"/>
  <circle cx="84" cy="215" r="7" fill="#FF6B00"/>
  <circle cx="97" cy="216" r="6" fill="#FF4500"/>
  <!-- Front row -->
  <circle cx="26" cy="222" r="6" fill="#FF8C00"/>
  <circle cx="38" cy="223" r="7" fill="#DC143C"/>
  <circle cx="51" cy="222" r="6" fill="#FF6B00"/>
  <circle cx="64" cy="223" r="7" fill="#FFD700"/>
  <circle cx="77" cy="222" r="6" fill="#FF4500"/>
  <circle cx="90" cy="223" r="7" fill="#FF8C00"/>
  <!-- Green stems on oranges -->
  <line x1="20" y1="209" x2="20" y2="206" stroke="#22C55E" stroke-width="1.5"/>
  <line x1="46" y1="209" x2="46" y2="206" stroke="#22C55E" stroke-width="1.5"/>
  <!-- Basket of strawberries -->
  <rect x="12" y="204" width="20" height="10" fill="#A07840" rx="2"/>
  <circle cx="16" cy="202" r="4" fill="#EF4444"/>
  <circle cx="22" cy="201" r="4" fill="#DC2626"/>
  <circle cx="28" cy="202" r="4" fill="#EF4444"/>

  <!-- STALL 2 — Blue awning · FROMAGES & PAIN -->
  <line x1="148" y1="230" x2="142" y2="270" stroke="#6B4226" stroke-width="3"/>
  <line x1="148" y1="230" x2="154" y2="270" stroke="#6B4226" stroke-width="3"/>
  <line x1="232" y1="230" x2="226" y2="270" stroke="#6B4226" stroke-width="3"/>
  <line x1="232" y1="230" x2="238" y2="270" stroke="#6B4226" stroke-width="3"/>
  <rect x="138" y="225" width="104" height="8" fill="#D4B880" rx="2"/>
  <rect x="140" y="185" width="4" height="48" fill="#7A5A30"/>
  <rect x="236" y="185" width="4" height="48" fill="#7A5A30"/>
  <polygon points="135,187 245,187 240,170 140,170" fill="#1D4ED8"/>
  <!-- Blue stripes -->
  <polygon points="155,170 160,170 165,187 160,187" fill="#1e3a8a" opacity="0.5"/>
  <polygon points="180,170 185,170 190,187 185,187" fill="#1e3a8a" opacity="0.5"/>
  <polygon points="205,170 210,170 215,187 210,187" fill="#1e3a8a" opacity="0.5"/>
  <polygon points="230,170 235,170 240,187 235,187" fill="#1e3a8a" opacity="0.5"/>
  <path d="M135,187 Q141,196 147,187 Q153,196 159,187 Q165,196 171,187 Q177,196 183,187 Q189,196 195,187 Q201,196 207,187 Q213,196 219,187 Q225,196 231,187 Q237,196 243,187" fill="none" stroke="#3B82F6" stroke-width="5"/>
  <!-- Sign -->
  <rect x="158" y="172" width="64" height="12" fill="#FFF9" rx="2"/>
  <text x="190" y="181" font-size="6" fill="#1D4ED8" text-anchor="middle" font-family="sans-serif" font-weight="bold">FROMAGES · PAIN</text>
  <!-- Tablecloth checkered -->
  <rect x="140" y="210" width="100" height="15" fill="#E8E0D0" rx="1"/>
  <rect x="140" y="210" width="10" height="15" fill="#D0C8B8" rx="1"/>
  <rect x="160" y="210" width="10" height="15" fill="#D0C8B8" rx="1"/>
  <rect x="180" y="210" width="10" height="15" fill="#D0C8B8" rx="1"/>
  <rect x="200" y="210" width="10" height="15" fill="#D0C8B8" rx="1"/>
  <rect x="220" y="210" width="10" height="15" fill="#D0C8B8" rx="1"/>
  <!-- Cheese wheel -->
  <circle cx="160" cy="216" r="14" fill="#F5D060"/>
  <circle cx="160" cy="216" r="12" fill="#ECC840"/>
  <!-- Cheese wedge cut out -->
  <polygon points="160,216 172,210 174,222" fill="#F5D060"/>
  <line x1="160" y1="216" x2="172" y2="210" stroke="#D4A820" stroke-width="1"/>
  <line x1="160" y1="216" x2="174" y2="222" stroke="#D4A820" stroke-width="1"/>
  <!-- Cheese holes -->
  <circle cx="155" cy="213" r="2" fill="#D4A820" opacity="0.6"/>
  <circle cx="162" cy="220" r="1.5" fill="#D4A820" opacity="0.6"/>
  <!-- Baguette -->
  <ellipse cx="205" cy="215" rx="24" ry="8" fill="#C8844A" transform="rotate(-12,205,215)"/>
  <ellipse cx="205" cy="213" rx="22" ry="6" fill="#D8945A" transform="rotate(-12,205,215)"/>
  <!-- Score marks -->
  <line x1="194" y1="208" x2="196" y2="218" stroke="#B07030" stroke-width="1" opacity="0.8"/>
  <line x1="202" y1="207" x2="204" y2="217" stroke="#B07030" stroke-width="1" opacity="0.8"/>
  <line x1="210" y1="208" x2="212" y2="218" stroke="#B07030" stroke-width="1" opacity="0.8"/>
  <!-- Camembert box -->
  <circle cx="231" cy="216" r="9" fill="#EEE8D0" stroke="#C0B080" stroke-width="1"/>
  <text x="231" y="219" font-size="4.5" fill="#806020" text-anchor="middle" font-family="serif">camembert</text>
  <!-- Small loaf -->
  <ellipse cx="185" cy="222" rx="14" ry="6" fill="#B8743A"/>
  <ellipse cx="185" cy="220" rx="12" ry="5" fill="#C8844A"/>

  <!-- STALL 3 — Green awning · LÉGUMES -->
  <line x1="368" y1="230" x2="362" y2="270" stroke="#6B4226" stroke-width="3"/>
  <line x1="368" y1="230" x2="374" y2="270" stroke="#6B4226" stroke-width="3"/>
  <line x1="452" y1="230" x2="446" y2="270" stroke="#6B4226" stroke-width="3"/>
  <line x1="452" y1="230" x2="458" y2="270" stroke="#6B4226" stroke-width="3"/>
  <rect x="358" y="225" width="104" height="8" fill="#D4B880" rx="2"/>
  <rect x="360" y="185" width="4" height="48" fill="#7A5A30"/>
  <rect x="456" y="185" width="4" height="48" fill="#7A5A30"/>
  <polygon points="355,187 465,187 460,170 360,170" fill="#15803D"/>
  <polygon points="375,170 380,170 385,187 380,187" fill="#166534" opacity="0.5"/>
  <polygon points="400,170 405,170 410,187 405,187" fill="#166534" opacity="0.5"/>
  <polygon points="425,170 430,170 435,187 430,187" fill="#166534" opacity="0.5"/>
  <polygon points="450,170 455,170 460,187 455,187" fill="#166534" opacity="0.5"/>
  <path d="M355,187 Q361,196 367,187 Q373,196 379,187 Q385,196 391,187 Q397,196 403,187 Q409,196 415,187 Q421,196 427,187 Q433,196 439,187 Q445,196 451,187 Q457,196 463,187" fill="none" stroke="#22C55E" stroke-width="5"/>
  <rect x="380" y="172" width="50" height="12" fill="#FFF9" rx="2"/>
  <text x="405" y="181" font-size="6.5" fill="#15803D" text-anchor="middle" font-family="sans-serif" font-weight="bold">LÉGUMES</text>
  <rect x="360" y="210" width="100" height="15" fill="#E8F0E0" rx="2"/>
  <!-- Lettuce heads -->
  <circle cx="375" cy="216" r="9" fill="#4ADE80"/>
  <circle cx="375" cy="214" rx="8" ry="8" fill="#22C55E"/>
  <circle cx="390" cy="217" r="9" fill="#4ADE80"/>
  <circle cx="390" cy="215" r="8" fill="#16A34A"/>
  <!-- Tomatoes -->
  <circle cx="408" cy="214" r="7" fill="#EF4444"/>
  <circle cx="421" cy="215" r="7" fill="#DC2626"/>
  <circle cx="432" cy="214" r="6" fill="#EF4444"/>
  <!-- Carrot bundle -->
  <rect x="440" y="207" width="6" height="16" fill="#F97316" rx="3"/>
  <rect x="448" y="208" width="6" height="15" fill="#EA580C" rx="3"/>
  <!-- Carrot tops -->
  <path d="M443,207 Q440,200 444,198" fill="none" stroke="#22C55E" stroke-width="1.5"/>
  <path d="M451,208 Q448,201 452,199" fill="none" stroke="#22C55E" stroke-width="1.5"/>
  <!-- Courgettes -->
  <ellipse cx="375" cy="223" rx="14" ry="5" fill="#86EFAC" transform="rotate(15,375,223)"/>
  <ellipse cx="410" cy="224" rx="14" ry="5" fill="#4ADE80" transform="rotate(-10,410,224)"/>
  <!-- Price tag -->
  <rect x="400" y="196" width="30" height="10" fill="#FFF" stroke="#CCC" stroke-width="0.5" rx="2"/>
  <text x="415" y="204" font-size="5.5" fill="#333" text-anchor="middle" font-family="sans-serif">1,50 €/kg</text>
  <line x1="400" y1="201" x2="395" y2="201" stroke="#999" stroke-width="0.5"/>

  <!-- STALL 4 — Yellow/orange awning · MARCHÉ sign -->
  <line x1="490" y1="230" x2="484" y2="270" stroke="#6B4226" stroke-width="3"/>
  <line x1="490" y1="230" x2="496" y2="270" stroke="#6B4226" stroke-width="3"/>
  <line x1="582" y1="230" x2="576" y2="270" stroke="#6B4226" stroke-width="3"/>
  <line x1="582" y1="230" x2="588" y2="270" stroke="#6B4226" stroke-width="3"/>
  <rect x="480" y="225" width="110" height="8" fill="#D4B880" rx="2"/>
  <rect x="482" y="185" width="4" height="48" fill="#7A5A30"/>
  <rect x="586" y="185" width="4" height="48" fill="#7A5A30"/>
  <polygon points="477,187 595,187 590,170 482,170" fill="#CA8A04"/>
  <polygon points="498,170 503,170 508,187 503,187" fill="#92400E" opacity="0.4"/>
  <polygon points="524,170 529,170 534,187 529,187" fill="#92400E" opacity="0.4"/>
  <polygon points="550,170 555,170 560,187 555,187" fill="#92400E" opacity="0.4"/>
  <polygon points="576,170 581,170 586,187 581,187" fill="#92400E" opacity="0.4"/>
  <path d="M477,187 Q483,196 489,187 Q495,196 501,187 Q507,196 513,187 Q519,196 525,187 Q531,196 537,187 Q543,196 549,187 Q555,196 561,187 Q567,196 573,187 Q579,196 585,187 Q591,196 597,187" fill="none" stroke="#EAB308" stroke-width="5"/>
  <rect x="504" y="172" width="62" height="12" fill="#FFF9" rx="2"/>
  <text x="535" y="181" font-size="6.5" fill="#92400E" text-anchor="middle" font-family="sans-serif" font-weight="bold">MARCHÉ FRAIS</text>
  <rect x="482" y="210" width="108" height="15" fill="#FFF3E0" rx="2"/>
  <!-- Melons -->
  <ellipse cx="498" cy="216" rx="12" ry="9" fill="#86EFAC"/>
  <ellipse cx="498" cy="214" rx="11" ry="8" fill="#6EE7B7"/>
  <line x1="493" y1="209" x2="503" y2="221" stroke="#4ADE80" stroke-width="1" opacity="0.7"/>
  <line x1="503" y1="209" x2="493" y2="221" stroke="#4ADE80" stroke-width="1" opacity="0.7"/>
  <!-- Grapes -->
  <circle cx="520" cy="218" r="5" fill="#A855F7"/>
  <circle cx="528" cy="215" r="5" fill="#9333EA"/>
  <circle cx="524" cy="224" r="5" fill="#A855F7"/>
  <circle cx="516" cy="222" r="4" fill="#7C3AED"/>
  <circle cx="532" cy="222" r="4" fill="#9333EA"/>
  <!-- Strawberries -->
  <circle cx="544" cy="214" r="6" fill="#EF4444"/>
  <circle cx="555" cy="215" r="6" fill="#DC2626"/>
  <circle cx="548" cy="222" r="5" fill="#EF4444"/>
  <!-- Jam jars -->
  <rect x="563" y="208" width="12" height="16" fill="#F87171" rx="2" opacity="0.9"/>
  <rect x="563" y="208" width="12" height="6" fill="#FCA5A5" rx="2" opacity="0.8"/>
  <rect x="578" y="209" width="12" height="15" fill="#FCD34D" rx="2" opacity="0.9"/>
  <rect x="578" y="209" width="12" height="5" fill="#FDE68A" rx="2" opacity="0.8"/>
  <!-- Honey sign -->
  <rect x="565" y="196" width="28" height="10" fill="#FEF3C7" stroke="#FCD34D" stroke-width="0.5" rx="2"/>
  <text x="579" y="204" font-size="5" fill="#92400E" text-anchor="middle" font-family="sans-serif">MIEL LOCAL</text>

  <!-- ══════════ PEOPLE ══════════ -->

  <!-- ── PERSON A: woman with red jacket at stall 1, reaching for fruit ── -->
  <circle cx="56" cy="250" r="10" fill="#F5CBA7"/><!-- head -->
  <!-- Hair bun -->
  <ellipse cx="56" cy="241" rx="9" ry="6" fill="#4A2E10"/>
  <circle cx="56" cy="238" r="5" fill="#5A3A18"/>
  <!-- Body - red jacket -->
  <rect x="48" y="260" width="16" height="22" fill="#DC2626" rx="3"/>
  <!-- Dark skirt -->
  <rect x="46" y="280" width="20" height="16" fill="#1E3A5F" rx="2"/>
  <!-- Arms - one reaching -->
  <line x1="48" y1="263" x2="34" y2="255" stroke="#F5CBA7" stroke-width="5" stroke-linecap="round"/>
  <circle cx="31" cy="254" r="4" fill="#F5CBA7"/><!-- hand -->
  <line x1="64" y1="263" x2="72" y2="269" stroke="#DC2626" stroke-width="5" stroke-linecap="round"/>
  <!-- Legs -->
  <line x1="51" y1="296" x2="48" y2="316" stroke="#1E3A5F" stroke-width="5" stroke-linecap="round"/>
  <line x1="57" y1="296" x2="60" y2="316" stroke="#1E3A5F" stroke-width="5" stroke-linecap="round"/>
  <!-- Shoes -->
  <ellipse cx="47" cy="316" rx="5" ry="3" fill="#333"/>
  <ellipse cx="61" cy="316" rx="5" ry="3" fill="#333"/>
  <!-- Wicker basket in hand -->
  <ellipse cx="30" cy="260" rx="10" ry="6" fill="#B8864A"/>
  <path d="M21,258 Q30,253 39,258" fill="none" stroke="#9A6A30" stroke-width="2"/>
  <!-- Fruit in basket -->
  <circle cx="27" cy="257" r="4" fill="#FF6B00"/>
  <circle cx="33" cy="256" r="4" fill="#FF4500"/>

  <!-- ── PERSON B: man in beret talking to vendor ── -->
  <circle cx="97" cy="246" r="10" fill="#D4A574"/>
  <!-- Beret -->
  <ellipse cx="97" cy="237" rx="12" ry="5" fill="#1E3A5F"/>
  <circle cx="103" cy="236" r="3" fill="#1E3A5F"/>
  <!-- Body - navy cardigan -->
  <rect x="89" y="256" width="16" height="22" fill="#1E3A5F" rx="3"/>
  <!-- Trousers -->
  <rect x="87" y="276" width="20" height="18" fill="#4A5568" rx="2"/>
  <!-- Arms - gesturing -->
  <line x1="89" y1="259" x2="76" y2="254" stroke="#D4A574" stroke-width="5" stroke-linecap="round"/>
  <circle cx="73" cy="253" r="4" fill="#D4A574"/>
  <line x1="105" y1="259" x2="118" y2="264" stroke="#D4A574" stroke-width="5" stroke-linecap="round"/>
  <circle cx="121" cy="265" r="4" fill="#D4A574"/>
  <!-- Legs -->
  <line x1="91" y1="294" x2="87" y2="316" stroke="#4A5568" stroke-width="5" stroke-linecap="round"/>
  <line x1="97" y1="294" x2="101" y2="316" stroke="#4A5568" stroke-width="5" stroke-linecap="round"/>
  <ellipse cx="86" cy="316" rx="5" ry="3" fill="#5A3A18"/>
  <ellipse cx="102" cy="316" rx="5" ry="3" fill="#5A3A18"/>
  <!-- Moustache detail -->
  <path d="M93,249 Q97,251 101,249" fill="none" stroke="#5A3A18" stroke-width="1.5"/>

  <!-- ── VENDOR at stall 2 (behind counter, apron) ── -->
  <circle cx="190" cy="237" r="9" fill="#F0C8A0"/>
  <!-- Hair -->
  <ellipse cx="190" cy="229" rx="9" ry="5" fill="#8B4513"/>
  <!-- White apron over blue top -->
  <rect x="183" y="246" width="14" height="20" fill="#3B82F6" rx="2"/>
  <rect x="181" y="248" width="18" height="16" fill="#FFF" rx="2" opacity="0.9"/>
  <!-- Apron strings -->
  <line x1="181" y1="250" x2="176" y2="248" stroke="#FFF" stroke-width="2"/>
  <line x1="199" y1="250" x2="204" y2="248" stroke="#FFF" stroke-width="2"/>
  <!-- Arms holding out cheese -->
  <line x1="183" y1="250" x2="170" y2="248" stroke="#F0C8A0" stroke-width="5" stroke-linecap="round"/>
  <circle cx="167" cy="248" r="4" fill="#F0C8A0"/>
  <line x1="197" y1="250" x2="208" y2="244" stroke="#F0C8A0" stroke-width="5" stroke-linecap="round"/>
  <!-- Small cheese wedge in hand -->
  <polygon points="165,244 172,240 174,250" fill="#F5D060"/>

  <!-- ── PERSON C: young woman with shopping bags ── -->
  <circle cx="235" cy="248" r="10" fill="#FDDCB5"/>
  <!-- Ponytail -->
  <ellipse cx="235" cy="239" rx="9" ry="6" fill="#B45309"/>
  <path d="M242,237 Q248,240 246,248" fill="none" stroke="#B45309" stroke-width="3"/>
  <!-- Colourful top -->
  <rect x="227" y="258" width="16" height="20" fill="#7C3AED" rx="3"/>
  <!-- Jeans -->
  <rect x="225" y="276" width="20" height="18" fill="#1D4ED8" rx="2"/>
  <!-- Arms - bags in both hands -->
  <line x1="227" y1="261" x2="215" y2="272" stroke="#FDDCB5" stroke-width="5" stroke-linecap="round"/>
  <line x1="243" y1="261" x2="255" y2="272" stroke="#FDDCB5" stroke-width="5" stroke-linecap="round"/>
  <!-- Shopping bags -->
  <rect x="207" y="268" width="14" height="18" fill="#FDE68A" rx="2" stroke="#CA8A04" stroke-width="1"/>
  <path d="M210,268 Q214,262 218,268" fill="none" stroke="#CA8A04" stroke-width="2"/>
  <rect x="248" y="268" width="14" height="18" fill="#FCA5A5" rx="2" stroke="#EF4444" stroke-width="1"/>
  <path d="M251,268 Q255,262 259,268" fill="none" stroke="#EF4444" stroke-width="2"/>
  <!-- Legs -->
  <line x1="229" y1="294" x2="225" y2="316" stroke="#1D4ED8" stroke-width="5" stroke-linecap="round"/>
  <line x1="235" y1="294" x2="239" y2="316" stroke="#1D4ED8" stroke-width="5" stroke-linecap="round"/>
  <ellipse cx="224" cy="317" rx="5" ry="3" fill="#1E3A5F"/>
  <ellipse cx="240" cy="317" rx="5" ry="3" fill="#1E3A5F"/>

  <!-- ── CHILD with mother near fountain ── -->
  <circle cx="268" cy="267" r="7" fill="#FDDCB5"/>
  <ellipse cx="268" cy="260" rx="7" ry="4" fill="#DC2626"/>
  <rect x="263" y="274" width="10" height="14" fill="#EA580C" rx="2"/>
  <rect x="261" y="286" width="12" height="12" fill="#7C3AED" rx="1"/>
  <line x1="263" y1="276" x2="257" y2="282" stroke="#FDDCB5" stroke-width="4" stroke-linecap="round"/>
  <line x1="273" y1="276" x2="279" y2="281" stroke="#FDDCB5" stroke-width="4" stroke-linecap="round"/>
  <!-- Ice cream in hand! -->
  <ellipse cx="281" cy="278" rx="5" ry="4" fill="#FDE68A"/>
  <rect x="279" y="280" width="4" height="8" fill="#F5CBA7" rx="1"/>
  <line x1="262" y1="298" x2="259" y2="310" stroke="#7C3AED" stroke-width="4" stroke-linecap="round"/>
  <line x1="269" y1="298" x2="272" y2="310" stroke="#7C3AED" stroke-width="4" stroke-linecap="round"/>
  <ellipse cx="258" cy="311" rx="4" ry="2" fill="#4A3728"/>
  <ellipse cx="273" cy="311" rx="4" ry="2" fill="#4A3728"/>

  <!-- ── MOTHER next to child ── -->
  <circle cx="253" cy="249" r="10" fill="#D4A574"/>
  <ellipse cx="253" cy="240" rx="10" ry="6" fill="#1E3A5F"/>
  <rect x="245" y="259" width="16" height="22" fill="#059669" rx="3"/>
  <rect x="243" y="279" width="20" height="16" fill="#0F172A" rx="2"/>
  <!-- Hand holding child's -->
  <line x1="245" y1="262" x2="268" y2="274" stroke="#D4A574" stroke-width="5" stroke-linecap="round"/>
  <line x1="261" y1="262" x2="272" y2="260" stroke="#D4A574" stroke-width="5" stroke-linecap="round"/>
  <line x1="247" y1="295" x2="244" y2="316" stroke="#0F172A" stroke-width="5" stroke-linecap="round"/>
  <line x1="253" y1="295" x2="257" y2="316" stroke="#0F172A" stroke-width="5" stroke-linecap="round"/>
  <ellipse cx="243" cy="317" rx="5" ry="3" fill="#333"/>
  <ellipse cx="258" cy="317" rx="5" ry="3" fill="#333"/>

  <!-- ── COUPLE chatting, near stall 3 ── -->
  <!-- Person left of couple (man) -->
  <circle cx="383" cy="247" r="10" fill="#8D6E63"/>
  <ellipse cx="383" cy="238" rx="10" ry="5" fill="#374151"/>
  <rect x="375" y="257" width="16" height="22" fill="#374151" rx="3"/>
  <rect x="373" y="277" width="20" height="16" fill="#6B4226" rx="2"/>
  <line x1="375" y1="260" x2="363" y2="256" stroke="#8D6E63" stroke-width="5" stroke-linecap="round"/>
  <line x1="391" y1="260" x2="403" y2="257" stroke="#8D6E63" stroke-width="5" stroke-linecap="round"/>
  <line x1="377" y1="293" x2="373" y2="316" stroke="#6B4226" stroke-width="5" stroke-linecap="round"/>
  <line x1="383" y1="293" x2="387" y2="316" stroke="#6B4226" stroke-width="5" stroke-linecap="round"/>
  <ellipse cx="372" cy="317" rx="5" ry="3" fill="#333"/>
  <ellipse cx="388" cy="317" rx="5" ry="3" fill="#333"/>
  <!-- Smile hint -->
  <path d="M380,251 Q383,253 386,251" fill="none" stroke="#6D4C41" stroke-width="1"/>

  <!-- Person right of couple (woman) -->
  <circle cx="408" cy="249" r="10" fill="#FDDCB5"/>
  <ellipse cx="408" cy="240" rx="9" ry="5" fill="#B45309"/>
  <path d="M415,239 Q420,244 418,252" fill="none" stroke="#B45309" stroke-width="3"/>
  <rect x="400" y="259" width="16" height="22" fill="#DB2777" rx="3"/>
  <rect x="398" y="279" width="20" height="16" fill="#9333EA" rx="2"/>
  <!-- Arm gesturing in conversation -->
  <line x1="400" y1="262" x2="388" y2="258" stroke="#FDDCB5" stroke-width="5" stroke-linecap="round"/>
  <line x1="416" y1="262" x2="426" y2="255" stroke="#FDDCB5" stroke-width="5" stroke-linecap="round"/>
  <circle cx="429" cy="254" r="4" fill="#FDDCB5"/>
  <line x1="402" y1="295" x2="398" y2="316" stroke="#9333EA" stroke-width="5" stroke-linecap="round"/>
  <line x1="408" y1="295" x2="412" y2="316" stroke="#9333EA" stroke-width="5" stroke-linecap="round"/>
  <ellipse cx="397" cy="317" rx="5" ry="3" fill="#333"/>
  <ellipse cx="413" cy="317" rx="5" ry="3" fill="#333"/>

  <!-- ── VENDOR at stall 3 (behind counter) ── -->
  <circle cx="430" cy="240" r="9" fill="#FDDCB5"/>
  <ellipse cx="430" cy="232" rx="9" ry="4" fill="#4A2E10"/>
  <rect x="422" y="249" width="16" height="18" fill="#FFF" rx="2" opacity="0.95"/>
  <rect x="424" y="251" width="12" height="14" fill="#15803D" rx="1" opacity="0.7"/>
  <line x1="422" y1="251" x2="412" y2="248" stroke="#FDDCB5" stroke-width="4" stroke-linecap="round"/>
  <line x1="438" y1="251" x2="448" y2="247" stroke="#FDDCB5" stroke-width="4" stroke-linecap="round"/>

  <!-- ── ELDERLY MAN with cane near stall 4 ── -->
  <circle cx="500" cy="247" r="10" fill="#F0C8A0"/>
  <ellipse cx="500" cy="238" rx="8" ry="4" fill="#D0D0D0"/>
  <rect x="493" y="257" width="14" height="22" fill="#6B7280" rx="3"/>
  <rect x="491" y="277" width="18" height="16" fill="#374151" rx="2"/>
  <line x1="493" y1="260" x2="482" y2="268" stroke="#F0C8A0" stroke-width="5" stroke-linecap="round"/>
  <line x1="507" y1="260" x2="518" y2="258" stroke="#F0C8A0" stroke-width="5" stroke-linecap="round"/>
  <!-- Walking cane -->
  <line x1="482" y1="268" x2="476" y2="316" stroke="#8B6914" stroke-width="3" stroke-linecap="round"/>
  <ellipse cx="476" cy="317" rx="5" ry="2" fill="#6B4226"/>
  <line x1="493" y1="293" x2="490" y2="316" stroke="#374151" stroke-width="5" stroke-linecap="round"/>
  <line x1="499" y1="293" x2="503" y2="316" stroke="#374151" stroke-width="5" stroke-linecap="round"/>
  <ellipse cx="489" cy="317" rx="5" ry="3" fill="#333"/>
  <ellipse cx="504" cy="317" rx="5" ry="3" fill="#333"/>

  <!-- ── VENDOR at stall 4 (stall keeper) ── -->
  <circle cx="542" cy="238" r="9" fill="#D4A574"/>
  <ellipse cx="542" cy="230" rx="9" ry="4" fill="#92400E"/>
  <rect x="535" y="247" width="14" height="18" fill="#FFF" rx="2" opacity="0.9"/>
  <rect x="537" y="249" width="10" height="14" fill="#CA8A04" rx="1" opacity="0.8"/>
  <line x1="535" y1="249" x2="525" y2="248" stroke="#D4A574" stroke-width="4" stroke-linecap="round"/>
  <line x1="549" y1="249" x2="558" y2="245" stroke="#D4A574" stroke-width="4" stroke-linecap="round"/>
  <!-- Holding scale/bag -->
  <ellipse cx="558" cy="242" rx="7" ry="5" fill="#F59E0B" opacity="0.9"/>

  <!-- ══════════ DETAILS & ATMOSPHERE ══════════ -->

  <!-- Lamp post between trees and buildings -->
  <rect x="155" y="195" width="6" height="75" fill="#4A4A5A" rx="2"/>
  <rect x="148" y="193" width="20" height="5" fill="#4A4A5A" rx="2"/>
  <ellipse cx="158" cy="192" rx="10" ry="5" fill="#FDE68A" opacity="0.8"/>
  <ellipse cx="158" cy="190" rx="8" ry="3" fill="#FFE566" opacity="0.6"/>

  <!-- Second lamp post right side -->
  <rect x="449" y="195" width="6" height="75" fill="#4A4A5A" rx="2"/>
  <rect x="442" y="193" width="20" height="5" fill="#4A4A5A" rx="2"/>
  <ellipse cx="452" cy="192" rx="10" ry="5" fill="#FDE68A" opacity="0.8"/>
  <ellipse cx="452" cy="190" rx="8" ry="3" fill="#FFE566" opacity="0.6"/>

  <!-- Potted flowers near fountain -->
  <rect x="234" y="258" width="10" height="12" fill="#B07840" rx="2"/>
  <circle cx="239" cy="255" r="8" fill="#22C55E"/>
  <circle cx="236" cy="252" r="5" fill="#EF4444"/>
  <circle cx="242" cy="251" r="4" fill="#F97316"/>
  <circle cx="239" cy="248" r="4" fill="#EF4444"/>

  <rect x="356" y="258" width="10" height="12" fill="#B07840" rx="2"/>
  <circle cx="361" cy="255" r="8" fill="#22C55E"/>
  <circle cx="358" cy="252" r="5" fill="#EC4899"/>
  <circle cx="364" cy="251" r="4" fill="#F9A8D4"/>
  <circle cx="361" cy="248" r="4" fill="#EC4899"/>

  <!-- Dropped apple on ground (charming detail) -->
  <circle cx="72" cy="285" r="5" fill="#EF4444"/>
  <line x1="72" y1="280" x2="72" y2="277" stroke="#22C55E" stroke-width="1.5"/>

  <!-- Dog on lead near elderly man -->
  <ellipse cx="468" cy="318" rx="12" ry="5" fill="#C8A060"/>
  <circle cx="478" cy="314" r="5" fill="#C8A060"/>
  <ellipse cx="480" cy="312" rx="5" ry="3" fill="#B89050"/><!-- ear -->
  <line x1="466" y1="313" x2="460" y2="318" stroke="#C8A060" stroke-width="3" stroke-linecap="round"/><!-- front leg -->
  <line x1="470" y1="315" x2="466" y2="320" stroke="#C8A060" stroke-width="3" stroke-linecap="round"/>
  <line x1="474" y1="320" x2="480" y2="325" stroke="#C8A060" stroke-width="2" stroke-linecap="round"/><!-- tail -->
  <!-- Lead -->
  <path d="M480,315 Q488,310 490,295" fill="none" stroke="#8B4513" stroke-width="1.5"/>

  <!-- "MARCHÉ" banner strung between lamp posts -->
  <line x1="161" y1="192" x2="449" y2="192" stroke="#8B4513" stroke-width="1" stroke-dasharray="4,2"/>
  <rect x="240" y="185" width="120" height="18" fill="#DC2626" rx="3"/>
  <text x="300" y="197" font-size="9" fill="white" text-anchor="middle" font-family="serif" font-weight="bold" letter-spacing="2">MARCHÉ</text>

  <!-- Distant people (small silhouettes far background) -->
  <ellipse cx="145" cy="252" rx="5" ry="6" fill="#6B4226" opacity="0.5"/>
  <rect x="141" y="258" width="8" height="12" fill="#4A3020" opacity="0.5" rx="2"/>
  <ellipse cx="460" cy="250" rx="5" ry="6" fill="#6B4226" opacity="0.5"/>
  <rect x="456" y="256" width="8" height="12" fill="#5A2020" opacity="0.5" rx="2"/>

  <!-- Shadows on ground -->
  <ellipse cx="56" cy="320" rx="12" ry="3" fill="#000" opacity="0.12"/>
  <ellipse cx="97" cy="320" rx="12" ry="3" fill="#000" opacity="0.12"/>
  <ellipse cx="235" cy="320" rx="12" ry="3" fill="#000" opacity="0.12"/>
  <ellipse cx="253" cy="320" rx="12" ry="3" fill="#000" opacity="0.12"/>
  <ellipse cx="268" cy="320" rx="8" ry="2" fill="#000" opacity="0.10"/>
  <ellipse cx="383" cy="320" rx="12" ry="3" fill="#000" opacity="0.12"/>
  <ellipse cx="408" cy="320" rx="12" ry="3" fill="#000" opacity="0.12"/>
  <ellipse cx="500" cy="320" rx="12" ry="3" fill="#000" opacity="0.12"/>
</svg>
